<svg width="16" height="14" viewBox="0 0 16 14" fill="none" xmlns="http://www.w3.org/2000/svg">
  <path d="M13.2632 7.36842H0.736842C0.331579 7.36842 0 7.7 0 8.10526V12.5263C0 12.9316 0.331579 13.2632 0.736842 13.2632H13.2632C13.6684 13.2632 14 12.9316 14 12.5263V8.10526C14 7.7 13.6684 7.36842 13.2632 7.36842ZM15.2632 0H2.73684C2.33158 0 2 0.331579 2 0.736842V5.15789C2 5.56316 2.33158 5.89474 2.73684 5.89474H15.2632C15.6684 5.89474 16 5.56316 16 5.15789V0.736842C16 0.331579 15.6684 0 15.2632 0Z" fill="#2E2E2E"/>
</svg>
